<svg width="97" height="49" viewBox="0 0 97 49" fill="none" xmlns="http://www.w3.org/2000/svg">
<path d="M37.2334 30.2803C39.3132 30.2803 41.1372 30.6721 42.7051 31.4561C44.273 32.24 45.4886 33.3363 46.3525 34.7441C47.2325 36.1521 47.6729 37.7846 47.6729 39.6406C47.6728 41.4965 47.2325 43.1282 46.3525 44.5361C45.4886 45.9441 44.273 47.0402 42.7051 47.8242C41.1372 48.6082 39.3132 48.9999 37.2334 49C35.1534 49 33.3287 48.6082 31.7607 47.8242C30.1929 47.0402 28.9688 45.9441 28.0889 44.5361C27.225 43.1283 26.793 41.4964 26.793 39.6406C26.793 37.7846 27.2249 36.1521 28.0889 34.7441C28.9688 33.3362 30.1928 32.24 31.7607 31.4561C33.3287 30.6721 35.1534 30.2803 37.2334 30.2803ZM13.1758 30.6406C14.8398 30.6406 16.128 31.0324 17.04 31.8164C17.9519 32.5843 18.4081 33.6481 18.4082 35.0078C18.4082 35.7438 18.2319 36.4565 17.8799 37.1445C17.5279 37.8164 16.968 38.3922 16.2002 38.8721C16.0069 38.9914 15.7947 39.0982 15.5654 39.1953C16.0789 39.3049 16.539 39.4524 16.9443 39.6406C17.856 40.0406 18.528 40.5921 18.96 41.2959C19.3919 41.9838 19.6083 42.776 19.6084 43.6719C19.6084 44.6318 19.3761 45.4883 18.9121 46.2402C18.4641 46.9762 17.7999 47.5602 16.9199 47.9922C16.04 48.4241 14.9362 48.6406 13.6084 48.6406H1.17578V30.6406H13.1758ZM71.7686 33.9766H64.5205V48.6406H60.752V33.9766H53.5039V30.6406H71.7686V33.9766ZM96.126 33.9766H88.8779V48.6406H85.1104V33.9766H77.8623V30.6406H96.126V33.9766ZM4.94434 45.7842H12.9355C13.8315 45.7842 14.5284 45.5762 15.0244 45.1602C15.5362 44.7282 15.792 44.1282 15.792 43.3604C15.792 42.5604 15.5037 41.9363 14.9277 41.4883C14.3518 41.0244 13.4961 40.792 12.3604 40.792H4.94434V45.7842ZM37.2334 33.6641C35.8894 33.6641 34.7205 33.9038 33.7285 34.3838C32.7366 34.8638 31.9688 35.5523 31.4248 36.4482C30.8808 37.3442 30.6094 38.4087 30.6094 39.6406C30.6094 40.8724 30.881 41.9362 31.4248 42.832C31.9687 43.7279 32.7367 44.4165 33.7285 44.8965C34.7205 45.3765 35.8894 45.6162 37.2334 45.6162C38.5932 45.6162 39.7614 45.3764 40.7373 44.8965C41.7292 44.4165 42.497 43.728 43.041 42.832C43.5849 41.9362 43.8574 40.8724 43.8574 39.6406C43.8574 38.4086 43.585 37.3442 43.041 36.4482C42.497 35.5523 41.7293 34.8638 40.7373 34.3838C39.7614 33.9038 38.5932 33.6641 37.2334 33.6641ZM4.94434 38.0078H11.9277C12.6957 38.0078 13.3282 37.7998 13.8242 37.3838C14.3359 36.9519 14.5917 36.3442 14.5918 35.5605C14.5918 34.9526 14.3762 34.4562 13.9443 34.0723C13.5284 33.6883 12.9201 33.4961 12.1201 33.4961H4.94434V38.0078ZM35.9512 0.280273C38.0312 0.280273 39.8558 0.672054 41.4238 1.45605C42.9917 2.24002 44.2073 3.33629 45.0713 4.74414C45.9513 6.15214 46.3916 7.78463 46.3916 9.64062C46.3915 11.4965 45.9512 13.1282 45.0713 14.5361C44.5153 15.4422 43.8124 16.2176 42.9648 16.8652L45.8877 19.9121H41.2314L39.8486 18.4531C38.6685 18.8176 37.3693 19 35.9512 19C33.8713 19 32.0474 18.6082 30.4795 17.8242C28.9115 17.0402 27.6876 15.9441 26.8076 14.5361C25.9437 13.1282 25.5118 11.4965 25.5117 9.64062C25.5117 7.78463 25.9436 6.15214 26.8076 4.74414C27.6876 3.33622 28.9116 2.24002 30.4795 1.45605C32.0474 0.672131 33.8713 0.280308 35.9512 0.280273ZM56.4258 10.8164C56.4258 11.7922 56.6181 12.6479 57.002 13.3838C57.402 14.1038 57.9701 14.656 58.7061 15.04C59.458 15.424 60.362 15.6162 61.418 15.6162C62.4738 15.6162 63.3695 15.424 64.1055 15.04C64.8415 14.656 65.4021 14.1038 65.7861 13.3838C66.1859 12.6479 66.3857 11.7921 66.3857 10.8164V0.640625H70.1543V10.96C70.1543 12.576 69.7858 13.9846 69.0498 15.1846C68.3138 16.3845 67.2895 17.3202 65.9775 17.9922C64.6816 18.6641 63.1618 19 61.418 19C59.674 19 58.146 18.6642 56.834 17.9922C55.522 17.3202 54.4977 16.3845 53.7617 15.1846C53.0257 13.9846 52.6582 12.576 52.6582 10.96V0.640625H56.4258V10.8164ZM21.792 18.6406H17.7842L15.9961 14.7285H5.81445L4.03223 18.6406H0L8.49609 0.640625H13.3203L21.792 18.6406ZM96.2949 18.6406H92.2871L90.499 14.7285H80.3174L78.5352 18.6406H74.5029L82.999 0.640625H87.8232L96.2949 18.6406ZM35.9512 3.66406C34.6073 3.66409 33.4392 3.90384 32.4473 4.38379C31.4553 4.86378 30.6876 5.55228 30.1436 6.44824C29.5996 7.34424 29.3271 8.40863 29.3271 9.64062C29.3272 10.8724 29.5997 11.9361 30.1436 12.832C30.6875 13.728 31.4553 14.4165 32.4473 14.8965C33.4392 15.3765 34.6073 15.6162 35.9512 15.6162C36.3499 15.6162 36.732 15.592 37.0977 15.5508L33.3838 11.6318H37.9434L40.4736 14.2695C40.9898 13.8716 41.4192 13.393 41.7598 12.832C42.3036 11.9362 42.5751 10.8723 42.5752 9.64062C42.5752 8.40868 42.3037 7.34422 41.7598 6.44824C41.2158 5.55224 40.4471 4.86379 39.4551 4.38379C38.4792 3.90395 37.3109 3.66406 35.9512 3.66406ZM7.21387 11.6562H14.5918L10.8965 3.57227L7.21387 11.6562ZM81.7168 11.6562H89.0947L85.3994 3.57227L81.7168 11.6562Z" fill="#22282A"/>
</svg>
